Genre:Animation | Adventure | Comedy
Language:English
IMDb:http://www.imdb.com/title/tt1302067/
Source:SERENiTY/IMAGINE Thx.


Format : AVI
Format/Info : Audio Video Interleave
File size : 622 MiB
Duration : 1h 12mn
Overall bit rate : 1 193 Kbps

Video
Codec ID/Hint : XviD
Duration : 1h 12mn
Bit rate : 960 Kbps
Width : 720 pixels
Height : 384 pixels
Display aspect ratio : 1.875
Frame rate : 25.000 fps
Color space : YUV
Chroma subsampling : 4:2:0
Bit depth : 8 bits
Scan type : Progressive
Bits/(Pixel*Frame) : 0.139
Stream size : 500 MiB (80%)
Writing library : XviD 1.2.1

Audio
ID : 1
Format : AC-3
Format/Info : Audio Coding 3
Mode extension : CM (complete main)
Codec ID : 2000
Duration : 1h 12mn
Bit rate mode : Constant
Bit rate : 224 Kbps
Channel(s) : 2 channels
Channel positions : Front: L R
Sampling rate : 48.0 KHz
Bit depth : 16 bits
Stream size : 117 MiB (19%)
Alignment : Aligned on interleaves
Interleave, duration : 40 ms (1.00 video frame)
Interleave, preload duration : 512 ms


Plot:
A documentary filmmaker travels to Jellystone Park to shoot a project and soon crosses paths with Yogi Bear, his sidekick Boo-Boo, and Ranger Smith








================================== 
http://thepiratebay.org/user/hiest
==================================









Screenshots:
 
http://rapidhdd.com/images/239839vlcsnap-00001.png
 
http://www.rapidhdd.com/images/723280vlcsnap-00002.png
 
http://www.rapidhdd.com/images/332760vlcsnap-00004.png
 
http://www.rapidhdd.com/images/50452vlcsnap-00003.png
 
http://www.rapidhdd.com/images/104055vlcsnap-00005.png
 
http://www.rapidhdd.com/images/129654vlcsnap-00007.png